<?xml version="1.0" encoding="UTF-8"?>
<svg width="111px" height="100px" viewBox="0 0 111 100" version="1.1" xmlns="http://www.w3.org/2000/svg" xmlns:xlink="http://www.w3.org/1999/xlink">
    <title>图片加载失败</title>
    <g id="页面-1" stroke="none" stroke-width="1" fill="none" fill-rule="evenodd" opacity="0.141002837">
        <g id="扫描仪监控管理/拓扑/扫描配置（无盒子）" transform="translate(-725.000000, -412.000000)" fill="#000000" fill-rule="nonzero">
            <g id="图片加载失败" transform="translate(725.000000, 412.000000)">
                <path d="M77,28 C77,32.418278 80.581722,36 85,36 C89.418278,36 93,32.418278 93,28 C93,23.581722 89.418278,20 85,20 C80.581722,20 77,23.581722 77,28 L77,28 Z" id="路径"></path>
                <path d="M110.121156,5.11764203 C109.496777,4.40331822 108.612878,3.96563772 107.664269,3.90106506 L56.6068496,0.344093679 C55.4334897,0.25352598 54.2919466,0.751194728 53.5626011,1.67126856 L43.2443895,14.475652 C42.1638897,15.8151929 42.1955031,17.7316852 43.3196004,19.0351399 L59.6761683,37.9830586 L43.1727602,59.685222 L47.2556346,40.3555621 C47.5319184,39.0473664 47.0508451,37.6950837 46.0092834,36.8521058 L24.5813557,19.4882345 L33.49205,5.47440947 C34.2136677,4.33757624 34.2321151,2.89308379 33.539763,1.73833175 C32.8474109,0.583579724 31.5619488,-0.08514121 30.2150061,0.00873228538 L3.3325014,1.87819367 C2.38437518,1.94401038 1.50139109,2.38253947 0.878008216,3.09720394 C0.254625339,3.8118684 -0.0580299068,4.7440554 0.00889836339,5.68846993 L6.25497993,94.6591341 C6.3228242,95.6055506 6.76558968,96.4862753 7.48573435,97.107283 C8.20587902,97.7282907 9.14431904,98.0386312 10.0943145,97.969936 L29.8496963,96.5000541 C31.8230856,96.3537795 33.3022322,94.6412958 33.1518105,92.6790748 C33.0013888,90.7168539 31.2966097,89.2184307 29.312476,89.3861114 L13.1457259,90.5884176 L12.4258506,80.2742709 L26.4508824,78.8721749 C27.3966495,78.7784477 28.2662331,78.3140829 28.8681215,77.5813492 C29.47001,76.8486155 29.7548386,75.9076091 29.6598784,74.9655714 C29.4545779,73.0086147 27.7044642,71.5820739 25.7381701,71.7689352 L11.9280265,73.1531928 L7.40463141,8.74953457 L23.6501738,7.61858178 L16.8274758,18.3465787 C15.8564018,19.8739004 16.1856835,21.8833654 17.5939101,23.0237998 L39.7990166,41.0120142 L33.2234399,72.1506763 C33.1170782,72.6974851 33.1453429,73.2618268 33.3058137,73.7953742 C33.2850172,74.2117055 33.3383685,74.6284171 33.4633983,75.0262219 L39.229563,92.2580893 C39.6782644,93.6036411 40.8849281,94.5562879 42.3024633,94.6841078 L100.848733,99.985672 C101.807605,100.071418 102.760852,99.7697799 103.494276,99.148536 C104.2277,98.5272921 104.679788,97.638547 104.748953,96.6820055 L110.991453,7.70777364 C111.056954,6.7636792 110.743983,5.83223328 110.121156,5.11764203 Z M99.0508362,75.4507752 L52.8749591,71.0304266 C51.926932,70.9250342 50.9764687,71.2065792 50.2402901,71.8108646 C49.5041116,72.4151501 49.0449771,73.2906607 48.9675767,74.2377659 C48.8767962,75.179728 49.1654087,76.1190292 49.7699118,76.8489989 C50.374415,77.5789686 51.2452816,78.0398002 52.1908986,78.1300986 L98.553012,82.5682856 L97.8510441,92.5506386 L45.2786638,87.7877932 L40.8483869,74.5517212 L67.1292049,39.9880916 C68.1509746,38.6490519 68.0927269,36.7804041 66.9895276,35.5070926 L50.6902631,16.6269596 L57.9749707,7.59004039 L103.592139,10.7652706 L99.0508362,75.4507752 L99.0508362,75.4507752 Z" id="形状"></path>
            </g>
        </g>
    </g>
</svg>